

<svg width="310" height="60" viewBox="0 0 310 119" fill="none" xmlns="http://www.w3.org/2000/svg">
<path fillRule="evenodd" clipRule="evenodd" d="M107.728 48.1614V0.979492H119.439V18.2244H144.557V28.8572H119.439V48.1614C119.439 54.6616 122.787 57.2112 127.62 57.2112C132.453 57.2112 135.787 54.7596 135.787 48.1614V46.8726H147.513V48.1614C147.513 61.652 139.43 68.1521 127.62 68.1521C115.811 68.1521 107.728 61.652 107.728 48.1614ZM22.2454 16.936C9.55334 16.936 0.881836 23.9265 0.881836 38.6078L0.90986 66.8637H12.6213V38.6218C12.6213 30.6928 16.5578 27.891 22.2734 27.891C27.989 27.891 31.9255 30.7348 31.9255 38.6218V39.1121H43.5529V38.8039C43.5529 23.9265 34.9375 16.936 22.2454 16.936ZM74.0502 16.936C58.6825 16.936 47.8536 27.7649 47.8536 42.5443C47.8536 57.3237 58.6825 68.1525 74.0502 68.1525C85.5656 68.1525 94.4332 62.1427 98.0755 52.8829H85.5656C83.1 56.0349 79.2616 57.5058 74.0502 57.5058C67.1719 57.5058 61.7364 53.7654 60.1674 46.6769H100.051V42.5443C100.051 27.7649 89.418 16.936 74.0502 16.936ZM74.0502 27.5127C80.4523 27.5127 85.7617 30.8188 87.6389 37.319H60.4616C62.3248 30.8609 67.6482 27.5127 74.0502 27.5127ZM154.994 18.2245V43.5246C154.994 59.873 164.646 68.1522 179.019 68.1522C193.392 68.1522 203.044 59.7749 203.044 43.5246V18.2245H191.333V43.5246C191.333 52.7845 186.402 57.2113 179.019 57.2113C171.636 57.2113 166.705 52.7845 166.705 43.5246V18.2245H154.994ZM212.696 38.6078C212.696 23.9265 221.368 16.936 234.06 16.936C246.752 16.936 255.339 23.9405 255.339 38.8039V39.1121H243.712V38.6218C243.712 30.7068 239.775 27.905 234.074 27.905C228.372 27.905 224.422 30.7068 224.422 38.6358V66.8637H212.71L212.696 38.6078ZM285.669 16.936C271.281 16.936 261.629 25.3134 261.629 41.5637L261.573 66.8637H273.299V41.5637C273.299 32.3038 278.314 27.877 285.697 27.877C293.079 27.877 297.996 32.3038 297.996 41.5637V66.8637H309.722V41.5637C309.722 25.2153 300.056 16.936 285.669 16.936ZM243.242 102.741L251.613 111.103L244.16 118.57L226.089 100.499V93.0319L244.16 74.9605L251.613 82.4132L242.894 91.1412H281.62C283.779 91.1357 285.916 90.7041 287.907 89.8711C289.899 89.0381 291.707 87.8201 293.227 86.2869C294.747 84.7538 295.95 82.9357 296.766 80.9368C297.582 78.938 297.995 76.7977 297.982 74.6387V66.8638H309.722V74.6387C309.714 82.0968 306.745 89.2466 301.468 94.5164C296.19 99.7861 289.036 102.744 281.578 102.741H243.242Z" fill="url(#paint0_linear_2724_123)"/>
<defs>
<linearGradient id="paint0_linear_2724_123" x1="9.83352" y1="96.7585" x2="302.325" y2="96.7585" gradientUnits="userSpaceOnUse">
<stop stopColor="#8257E5"/>
<stop offset="0.53" stop-color="#D72891"/>
<stop offset="1" stop-color="#F1594B"/>
</linearGradient>
</defs>
</svg>
